<mxfile host="app.diagrams.net" agent="Mozilla/5.0 (Macintosh; Intel Mac OS X 10_15_7) AppleWebKit/537.36 (KHTML, like Gecko) Chrome/135.0.0.0 Safari/537.36" version="27.0.6">
  <diagram name="第 1 页" id="PcZX3PTZUjtZRj84sDk6">
    <mxGraphModel dx="1454" dy="936" grid="1" gridSize="10" guides="1" tooltips="1" connect="1" arrows="1" fold="1" page="0" pageScale="1" pageWidth="827" pageHeight="1169" math="0" shadow="0">
      <root>
        <mxCell id="0" />
        <mxCell id="1" parent="0" />
        <mxCell id="ffiExBi7iPwK-QHplg8S-1" style="edgeStyle=orthogonalEdgeStyle;rounded=0;orthogonalLoop=1;jettySize=auto;html=1;entryX=0.5;entryY=1;entryDx=0;entryDy=0;" edge="1" parent="1" source="ffiExBi7iPwK-QHplg8S-4" target="ffiExBi7iPwK-QHplg8S-7">
          <mxGeometry relative="1" as="geometry" />
        </mxCell>
        <mxCell id="ffiExBi7iPwK-QHplg8S-2" style="edgeStyle=orthogonalEdgeStyle;rounded=0;orthogonalLoop=1;jettySize=auto;html=1;entryX=0.5;entryY=1;entryDx=0;entryDy=0;" edge="1" parent="1" source="ffiExBi7iPwK-QHplg8S-4" target="ffiExBi7iPwK-QHplg8S-8">
          <mxGeometry relative="1" as="geometry" />
        </mxCell>
        <mxCell id="ffiExBi7iPwK-QHplg8S-3" style="edgeStyle=orthogonalEdgeStyle;rounded=0;orthogonalLoop=1;jettySize=auto;html=1;entryX=0.5;entryY=1;entryDx=0;entryDy=0;" edge="1" parent="1" source="ffiExBi7iPwK-QHplg8S-4" target="ffiExBi7iPwK-QHplg8S-9">
          <mxGeometry relative="1" as="geometry" />
        </mxCell>
        <mxCell id="ffiExBi7iPwK-QHplg8S-4" value="" style="rounded=0;whiteSpace=wrap;html=1;fillColor=#ffe6cc;strokeColor=#d79b00;" vertex="1" parent="1">
          <mxGeometry x="350" y="640" width="190" height="120" as="geometry" />
        </mxCell>
        <mxCell id="ffiExBi7iPwK-QHplg8S-5" value="replication controller" style="text;html=1;align=center;verticalAlign=middle;whiteSpace=wrap;rounded=0;" vertex="1" parent="1">
          <mxGeometry x="380" y="770" width="120" height="30" as="geometry" />
        </mxCell>
        <mxCell id="ffiExBi7iPwK-QHplg8S-6" value="&lt;font&gt;&lt;span style=&quot;box-sizing: border-box; text-wrap-style: initial; word-break: break-word; font-family: Consolas, Monaco, &amp;quot;Andale Mono&amp;quot;, &amp;quot;Ubuntu Mono&amp;quot;, monospace; white-space-collapse: preserve;&quot;&gt;&lt;span style=&quot;box-sizing: border-box; text-wrap-style: initial; word-break: break-word; color: rgb(0, 119, 170);&quot; class=&quot;token key&quot;&gt;template&lt;/span&gt;&lt;span style=&quot;box-sizing: border-box; text-wrap-style: initial; word-break: break-word; color: rgb(153, 153, 153);&quot; class=&quot;token&quot;&gt;:&lt;/span&gt;&lt;span style=&quot;box-sizing: border-box; text-wrap-style: initial; word-break: break-word;&quot;&gt;                 &lt;/span&gt;&lt;span style=&quot;box-sizing: border-box; text-wrap-style: initial; word-break: break-word;&quot;&gt;&lt;br&gt;&lt;/span&gt;&lt;/span&gt;&lt;span style=&quot;box-sizing: border-box; text-wrap-style: initial; word-break: break-word; font-family: Consolas, Monaco, &amp;quot;Andale Mono&amp;quot;, &amp;quot;Ubuntu Mono&amp;quot;, monospace; white-space-collapse: preserve;&quot;&gt;&lt;span style=&quot;box-sizing: border-box; text-wrap-style: initial; word-break: break-word;&quot;&gt;    &lt;/span&gt;&lt;span style=&quot;box-sizing: border-box; text-wrap-style: initial; word-break: break-word; color: rgb(0, 119, 170);&quot; class=&quot;token key&quot;&gt;metadata&lt;/span&gt;&lt;span style=&quot;box-sizing: border-box; text-wrap-style: initial; word-break: break-word; color: rgb(153, 153, 153);&quot; class=&quot;token&quot;&gt;:&lt;/span&gt;&lt;span style=&quot;box-sizing: border-box; text-wrap-style: initial; word-break: break-word;&quot;&gt;&lt;br&gt;&lt;/span&gt;&lt;/span&gt;&lt;span style=&quot;box-sizing: border-box; text-wrap-style: initial; word-break: break-word; font-family: Consolas, Monaco, &amp;quot;Andale Mono&amp;quot;, &amp;quot;Ubuntu Mono&amp;quot;, monospace; white-space-collapse: preserve;&quot;&gt;&lt;span style=&quot;box-sizing: border-box; text-wrap-style: initial; word-break: break-word;&quot;&gt;      &lt;/span&gt;&lt;span style=&quot;box-sizing: border-box; text-wrap-style: initial; word-break: break-word; color: rgb(0, 119, 170);&quot; data-spm-anchor-id=&quot;60902afd.2ef5001f.0.i4.655a3d33Okxrpd&quot; class=&quot;token key&quot;&gt;labels&lt;/span&gt;&lt;span style=&quot;box-sizing: border-box; text-wrap-style: initial; word-break: break-word; color: rgb(153, 153, 153);&quot; class=&quot;token&quot;&gt;:&lt;/span&gt;&lt;span style=&quot;box-sizing: border-box; text-wrap-style: initial; word-break: break-word;&quot;&gt;&lt;br&gt;&lt;/span&gt;&lt;/span&gt;&lt;span style=&quot;box-sizing: border-box; text-wrap-style: initial; word-break: break-word; font-family: Consolas, Monaco, &amp;quot;Andale Mono&amp;quot;, &amp;quot;Ubuntu Mono&amp;quot;, monospace; white-space-collapse: preserve;&quot;&gt;&lt;span style=&quot;box-sizing: border-box; text-wrap-style: initial; word-break: break-word;&quot;&gt;        &lt;/span&gt;&lt;span style=&quot;box-sizing: border-box; text-wrap-style: initial; word-break: break-word; color: rgb(0, 119, 170);&quot; class=&quot;token key&quot;&gt;app&lt;/span&gt;&lt;span style=&quot;box-sizing: border-box; text-wrap-style: initial; word-break: break-word; color: rgb(153, 153, 153);&quot; class=&quot;token&quot;&gt;:&lt;/span&gt;&lt;span style=&quot;box-sizing: border-box; text-wrap-style: initial; word-break: break-word;&quot;&gt; webapp       &lt;/span&gt;&lt;span style=&quot;box-sizing: border-box; text-wrap-style: initial; word-break: break-word;&quot;&gt;&lt;br&gt;&lt;/span&gt;&lt;/span&gt;&lt;span style=&quot;box-sizing: border-box; text-wrap-style: initial; word-break: break-word; font-family: Consolas, Monaco, &amp;quot;Andale Mono&amp;quot;, &amp;quot;Ubuntu Mono&amp;quot;, monospace; white-space-collapse: preserve;&quot;&gt;&lt;span style=&quot;box-sizing: border-box; text-wrap-style: initial; word-break: break-word;&quot;&gt;    &lt;/span&gt;&lt;span style=&quot;box-sizing: border-box; text-wrap-style: initial; word-break: break-word; color: rgb(0, 119, 170);&quot; class=&quot;token key&quot;&gt;spec&lt;/span&gt;&lt;span style=&quot;box-sizing: border-box; text-wrap-style: initial; word-break: break-word; color: rgb(153, 153, 153);&quot; class=&quot;token&quot;&gt;:&lt;/span&gt;&lt;span style=&quot;box-sizing: border-box; text-wrap-style: initial; word-break: break-word;&quot;&gt;&lt;br&gt;&lt;/span&gt;&lt;/span&gt;&lt;span style=&quot;box-sizing: border-box; text-wrap-style: initial; word-break: break-word; font-family: Consolas, Monaco, &amp;quot;Andale Mono&amp;quot;, &amp;quot;Ubuntu Mono&amp;quot;, monospace; white-space-collapse: preserve;&quot;&gt;&lt;span style=&quot;box-sizing: border-box; text-wrap-style: initial; word-break: break-word;&quot;&gt;      &lt;/span&gt;&lt;span style=&quot;box-sizing: border-box; text-wrap-style: initial; word-break: break-word; color: rgb(0, 119, 170);&quot; class=&quot;token key&quot;&gt;containers&lt;/span&gt;&lt;span style=&quot;box-sizing: border-box; text-wrap-style: initial; word-break: break-word; color: rgb(153, 153, 153);&quot; class=&quot;token&quot;&gt;:&lt;/span&gt;&lt;/span&gt;&lt;span style=&quot;box-sizing: border-box; text-wrap-style: initial; word-break: break-word; font-family: Consolas, Monaco, &amp;quot;Andale Mono&amp;quot;, &amp;quot;Ubuntu Mono&amp;quot;, monospace; white-space-collapse: preserve;&quot;&gt;&lt;span style=&quot;box-sizing: border-box; text-wrap-style: initial; word-break: break-word;&quot;&gt;&lt;br&gt;&lt;div style=&quot;&quot;&gt;&lt;span style=&quot;color: light-dark(rgb(0, 0, 0), rgb(255, 255, 255)); box-sizing: border-box; text-wrap-style: initial; word-break: break-word;&quot;&gt;          &lt;/span&gt;&lt;span style=&quot;box-sizing: border-box; text-wrap-style: initial; word-break: break-word; color: rgb(0, 119, 170);&quot; class=&quot;token key&quot;&gt;image&lt;/span&gt;&lt;span style=&quot;box-sizing: border-box; text-wrap-style: initial; word-break: break-word; color: rgb(153, 153, 153);&quot; class=&quot;token&quot;&gt;:&lt;/span&gt;&lt;span style=&quot;color: light-dark(rgb(0, 0, 0), rgb(255, 255, 255)); box-sizing: border-box; text-wrap-style: initial; word-break: break-word;&quot;&gt; nginx&lt;/span&gt;&lt;span style=&quot;box-sizing: border-box; text-wrap-style: initial; word-break: break-word; color: rgb(153, 153, 153);&quot; class=&quot;token&quot;&gt;:&lt;/span&gt;&lt;span style=&quot;color: light-dark(rgb(0, 0, 0), rgb(255, 255, 255)); box-sizing: border-box; text-wrap-style: initial; word-break: break-word;&quot;&gt;V1&lt;/span&gt;&lt;/div&gt;&lt;/span&gt;&lt;/span&gt;&lt;/font&gt;" style="text;html=1;align=left;verticalAlign=middle;whiteSpace=wrap;rounded=0;" vertex="1" parent="1">
          <mxGeometry x="350" y="645" width="190" height="115" as="geometry" />
        </mxCell>
        <mxCell id="ffiExBi7iPwK-QHplg8S-7" value="Pod:nginx:V1" style="rounded=1;whiteSpace=wrap;html=1;fillColor=#dae8fc;strokeColor=#6c8ebf;" vertex="1" parent="1">
          <mxGeometry x="310" y="530" width="80" height="50" as="geometry" />
        </mxCell>
        <mxCell id="ffiExBi7iPwK-QHplg8S-8" value="Pod:nginx:V1" style="rounded=1;whiteSpace=wrap;html=1;fillColor=#dae8fc;strokeColor=#6c8ebf;" vertex="1" parent="1">
          <mxGeometry x="405" y="530" width="80" height="50" as="geometry" />
        </mxCell>
        <mxCell id="ffiExBi7iPwK-QHplg8S-9" value="Pod:nginx:V1" style="rounded=1;whiteSpace=wrap;html=1;fillColor=#dae8fc;strokeColor=#6c8ebf;" vertex="1" parent="1">
          <mxGeometry x="505" y="530" width="80" height="50" as="geometry" />
        </mxCell>
        <mxCell id="ffiExBi7iPwK-QHplg8S-10" style="edgeStyle=orthogonalEdgeStyle;rounded=0;orthogonalLoop=1;jettySize=auto;html=1;entryX=0.5;entryY=0;entryDx=0;entryDy=0;" edge="1" parent="1" source="ffiExBi7iPwK-QHplg8S-13" target="ffiExBi7iPwK-QHplg8S-7">
          <mxGeometry relative="1" as="geometry" />
        </mxCell>
        <mxCell id="ffiExBi7iPwK-QHplg8S-11" style="edgeStyle=orthogonalEdgeStyle;rounded=0;orthogonalLoop=1;jettySize=auto;html=1;entryX=0.5;entryY=0;entryDx=0;entryDy=0;" edge="1" parent="1" source="ffiExBi7iPwK-QHplg8S-13" target="ffiExBi7iPwK-QHplg8S-8">
          <mxGeometry relative="1" as="geometry" />
        </mxCell>
        <mxCell id="ffiExBi7iPwK-QHplg8S-12" style="edgeStyle=orthogonalEdgeStyle;rounded=0;orthogonalLoop=1;jettySize=auto;html=1;" edge="1" parent="1" source="ffiExBi7iPwK-QHplg8S-13" target="ffiExBi7iPwK-QHplg8S-9">
          <mxGeometry relative="1" as="geometry">
            <Array as="points">
              <mxPoint x="445" y="490" />
              <mxPoint x="550" y="490" />
            </Array>
          </mxGeometry>
        </mxCell>
        <mxCell id="ffiExBi7iPwK-QHplg8S-13" value="service：&lt;div&gt;label:webapp&lt;/div&gt;" style="ellipse;shape=cloud;whiteSpace=wrap;html=1;fillColor=#d5e8d4;strokeColor=#82b366;" vertex="1" parent="1">
          <mxGeometry x="385" y="370" width="120" height="80" as="geometry" />
        </mxCell>
        <mxCell id="ffiExBi7iPwK-QHplg8S-14" style="edgeStyle=orthogonalEdgeStyle;rounded=0;orthogonalLoop=1;jettySize=auto;html=1;entryX=0.5;entryY=1;entryDx=0;entryDy=0;" edge="1" parent="1" source="ffiExBi7iPwK-QHplg8S-17" target="ffiExBi7iPwK-QHplg8S-20">
          <mxGeometry relative="1" as="geometry" />
        </mxCell>
        <mxCell id="ffiExBi7iPwK-QHplg8S-15" style="edgeStyle=orthogonalEdgeStyle;rounded=0;orthogonalLoop=1;jettySize=auto;html=1;entryX=0.5;entryY=1;entryDx=0;entryDy=0;" edge="1" parent="1" source="ffiExBi7iPwK-QHplg8S-17" target="ffiExBi7iPwK-QHplg8S-21">
          <mxGeometry relative="1" as="geometry" />
        </mxCell>
        <mxCell id="ffiExBi7iPwK-QHplg8S-16" style="edgeStyle=orthogonalEdgeStyle;rounded=0;orthogonalLoop=1;jettySize=auto;html=1;entryX=0.5;entryY=1;entryDx=0;entryDy=0;" edge="1" parent="1" source="ffiExBi7iPwK-QHplg8S-17" target="ffiExBi7iPwK-QHplg8S-22">
          <mxGeometry relative="1" as="geometry" />
        </mxCell>
        <mxCell id="ffiExBi7iPwK-QHplg8S-17" value="" style="rounded=0;whiteSpace=wrap;html=1;fillColor=#ffe6cc;strokeColor=#d79b00;" vertex="1" parent="1">
          <mxGeometry x="680" y="640" width="190" height="120" as="geometry" />
        </mxCell>
        <mxCell id="ffiExBi7iPwK-QHplg8S-18" value="replication controller" style="text;html=1;align=center;verticalAlign=middle;whiteSpace=wrap;rounded=0;" vertex="1" parent="1">
          <mxGeometry x="720" y="770" width="120" height="30" as="geometry" />
        </mxCell>
        <mxCell id="ffiExBi7iPwK-QHplg8S-19" value="&lt;font&gt;&lt;span style=&quot;box-sizing: border-box; text-wrap-style: initial; word-break: break-word; font-family: Consolas, Monaco, &amp;quot;Andale Mono&amp;quot;, &amp;quot;Ubuntu Mono&amp;quot;, monospace; white-space-collapse: preserve;&quot;&gt;&lt;span style=&quot;box-sizing: border-box; text-wrap-style: initial; word-break: break-word; color: rgb(0, 119, 170);&quot; class=&quot;token key&quot;&gt;template&lt;/span&gt;&lt;span style=&quot;box-sizing: border-box; text-wrap-style: initial; word-break: break-word; color: rgb(153, 153, 153);&quot; class=&quot;token&quot;&gt;:&lt;/span&gt;&lt;span style=&quot;box-sizing: border-box; text-wrap-style: initial; word-break: break-word;&quot;&gt;                 &lt;/span&gt;&lt;span style=&quot;box-sizing: border-box; text-wrap-style: initial; word-break: break-word;&quot;&gt;&lt;br&gt;&lt;/span&gt;&lt;/span&gt;&lt;span style=&quot;box-sizing: border-box; text-wrap-style: initial; word-break: break-word; font-family: Consolas, Monaco, &amp;quot;Andale Mono&amp;quot;, &amp;quot;Ubuntu Mono&amp;quot;, monospace; white-space-collapse: preserve;&quot;&gt;&lt;span style=&quot;box-sizing: border-box; text-wrap-style: initial; word-break: break-word;&quot;&gt;    &lt;/span&gt;&lt;span style=&quot;box-sizing: border-box; text-wrap-style: initial; word-break: break-word; color: rgb(0, 119, 170);&quot; class=&quot;token key&quot;&gt;metadata&lt;/span&gt;&lt;span style=&quot;box-sizing: border-box; text-wrap-style: initial; word-break: break-word; color: rgb(153, 153, 153);&quot; class=&quot;token&quot;&gt;:&lt;/span&gt;&lt;span style=&quot;box-sizing: border-box; text-wrap-style: initial; word-break: break-word;&quot;&gt;&lt;br&gt;&lt;/span&gt;&lt;/span&gt;&lt;span style=&quot;box-sizing: border-box; text-wrap-style: initial; word-break: break-word; font-family: Consolas, Monaco, &amp;quot;Andale Mono&amp;quot;, &amp;quot;Ubuntu Mono&amp;quot;, monospace; white-space-collapse: preserve;&quot;&gt;&lt;span style=&quot;box-sizing: border-box; text-wrap-style: initial; word-break: break-word;&quot;&gt;      &lt;/span&gt;&lt;span style=&quot;box-sizing: border-box; text-wrap-style: initial; word-break: break-word; color: rgb(0, 119, 170);&quot; data-spm-anchor-id=&quot;60902afd.2ef5001f.0.i4.655a3d33Okxrpd&quot; class=&quot;token key&quot;&gt;labels&lt;/span&gt;&lt;span style=&quot;box-sizing: border-box; text-wrap-style: initial; word-break: break-word; color: rgb(153, 153, 153);&quot; class=&quot;token&quot;&gt;:&lt;/span&gt;&lt;span style=&quot;box-sizing: border-box; text-wrap-style: initial; word-break: break-word;&quot;&gt;&lt;br&gt;&lt;/span&gt;&lt;/span&gt;&lt;span style=&quot;box-sizing: border-box; text-wrap-style: initial; word-break: break-word; font-family: Consolas, Monaco, &amp;quot;Andale Mono&amp;quot;, &amp;quot;Ubuntu Mono&amp;quot;, monospace; white-space-collapse: preserve;&quot;&gt;&lt;span style=&quot;box-sizing: border-box; text-wrap-style: initial; word-break: break-word;&quot;&gt;        &lt;/span&gt;&lt;span style=&quot;box-sizing: border-box; text-wrap-style: initial; word-break: break-word; color: rgb(0, 119, 170);&quot; class=&quot;token key&quot;&gt;app&lt;/span&gt;&lt;span style=&quot;box-sizing: border-box; text-wrap-style: initial; word-break: break-word; color: rgb(153, 153, 153);&quot; class=&quot;token&quot;&gt;:&lt;/span&gt;&lt;span style=&quot;box-sizing: border-box; text-wrap-style: initial; word-break: break-word;&quot;&gt; webapp&lt;/span&gt;&lt;/span&gt;&lt;/font&gt;&lt;div&gt;&lt;font&gt;&lt;span style=&quot;box-sizing: border-box; text-wrap-style: initial; word-break: break-word; font-family: Consolas, Monaco, &amp;quot;Andale Mono&amp;quot;, &amp;quot;Ubuntu Mono&amp;quot;, monospace; white-space-collapse: preserve;&quot;&gt;&lt;span style=&quot;box-sizing: border-box; text-wrap-style: initial; word-break: break-word;&quot;&gt;&lt;span style=&quot;white-space: pre;&quot;&gt;&#x9;&lt;/span&gt;deploy:v1       &lt;/span&gt;&lt;span style=&quot;box-sizing: border-box; text-wrap-style: initial; word-break: break-word;&quot;&gt;&lt;br&gt;&lt;/span&gt;&lt;/span&gt;&lt;span style=&quot;box-sizing: border-box; text-wrap-style: initial; word-break: break-word; font-family: Consolas, Monaco, &amp;quot;Andale Mono&amp;quot;, &amp;quot;Ubuntu Mono&amp;quot;, monospace; white-space-collapse: preserve;&quot;&gt;&lt;span style=&quot;box-sizing: border-box; text-wrap-style: initial; word-break: break-word;&quot;&gt;    &lt;/span&gt;&lt;span style=&quot;box-sizing: border-box; text-wrap-style: initial; word-break: break-word; color: rgb(0, 119, 170);&quot; class=&quot;token key&quot;&gt;spec&lt;/span&gt;&lt;span style=&quot;box-sizing: border-box; text-wrap-style: initial; word-break: break-word; color: rgb(153, 153, 153);&quot; class=&quot;token&quot;&gt;:&lt;/span&gt;&lt;span style=&quot;box-sizing: border-box; text-wrap-style: initial; word-break: break-word;&quot;&gt;&lt;br&gt;&lt;/span&gt;&lt;/span&gt;&lt;span style=&quot;box-sizing: border-box; text-wrap-style: initial; word-break: break-word; font-family: Consolas, Monaco, &amp;quot;Andale Mono&amp;quot;, &amp;quot;Ubuntu Mono&amp;quot;, monospace; white-space-collapse: preserve;&quot;&gt;&lt;span style=&quot;box-sizing: border-box; text-wrap-style: initial; word-break: break-word;&quot;&gt;      &lt;/span&gt;&lt;span style=&quot;box-sizing: border-box; text-wrap-style: initial; word-break: break-word; color: rgb(0, 119, 170);&quot; class=&quot;token key&quot;&gt;containers&lt;/span&gt;&lt;span style=&quot;box-sizing: border-box; text-wrap-style: initial; word-break: break-word; color: rgb(153, 153, 153);&quot; class=&quot;token&quot;&gt;:&lt;/span&gt;&lt;/span&gt;&lt;span style=&quot;box-sizing: border-box; text-wrap-style: initial; word-break: break-word; font-family: Consolas, Monaco, &amp;quot;Andale Mono&amp;quot;, &amp;quot;Ubuntu Mono&amp;quot;, monospace; white-space-collapse: preserve;&quot;&gt;&lt;span style=&quot;box-sizing: border-box; text-wrap-style: initial; word-break: break-word;&quot;&gt;&lt;br&gt;&lt;div style=&quot;&quot;&gt;&lt;span style=&quot;color: light-dark(rgb(0, 0, 0), rgb(255, 255, 255)); box-sizing: border-box; text-wrap-style: initial; word-break: break-word;&quot;&gt;          &lt;/span&gt;&lt;span style=&quot;box-sizing: border-box; text-wrap-style: initial; word-break: break-word; color: rgb(0, 119, 170);&quot; class=&quot;token key&quot;&gt;image&lt;/span&gt;&lt;span style=&quot;box-sizing: border-box; text-wrap-style: initial; word-break: break-word; color: rgb(153, 153, 153);&quot; class=&quot;token&quot;&gt;:&lt;/span&gt;&lt;span style=&quot;color: light-dark(rgb(0, 0, 0), rgb(255, 255, 255)); box-sizing: border-box; text-wrap-style: initial; word-break: break-word;&quot;&gt; nginx&lt;/span&gt;&lt;span style=&quot;box-sizing: border-box; text-wrap-style: initial; word-break: break-word; color: rgb(153, 153, 153);&quot; class=&quot;token&quot;&gt;:&lt;/span&gt;&lt;span style=&quot;color: light-dark(rgb(0, 0, 0), rgb(255, 255, 255)); box-sizing: border-box; text-wrap-style: initial; word-break: break-word;&quot;&gt;V1&lt;/span&gt;&lt;/div&gt;&lt;/span&gt;&lt;/span&gt;&lt;/font&gt;&lt;/div&gt;" style="text;html=1;align=left;verticalAlign=middle;whiteSpace=wrap;rounded=0;" vertex="1" parent="1">
          <mxGeometry x="680" y="642" width="190" height="115" as="geometry" />
        </mxCell>
        <mxCell id="ffiExBi7iPwK-QHplg8S-20" value="Pod:nginx:V1" style="rounded=1;whiteSpace=wrap;html=1;fillColor=#dae8fc;strokeColor=#6c8ebf;" vertex="1" parent="1">
          <mxGeometry x="640" y="530" width="80" height="50" as="geometry" />
        </mxCell>
        <mxCell id="ffiExBi7iPwK-QHplg8S-21" value="Pod:nginx:V1" style="rounded=1;whiteSpace=wrap;html=1;fillColor=#dae8fc;strokeColor=#6c8ebf;" vertex="1" parent="1">
          <mxGeometry x="735" y="530" width="80" height="50" as="geometry" />
        </mxCell>
        <mxCell id="ffiExBi7iPwK-QHplg8S-22" value="Pod:nginx:V1" style="rounded=1;whiteSpace=wrap;html=1;fillColor=#dae8fc;strokeColor=#6c8ebf;" vertex="1" parent="1">
          <mxGeometry x="830" y="530" width="80" height="50" as="geometry" />
        </mxCell>
        <mxCell id="ffiExBi7iPwK-QHplg8S-25" style="edgeStyle=orthogonalEdgeStyle;rounded=0;orthogonalLoop=1;jettySize=auto;html=1;entryX=0.5;entryY=1;entryDx=0;entryDy=0;" edge="1" parent="1" source="ffiExBi7iPwK-QHplg8S-26" target="ffiExBi7iPwK-QHplg8S-31">
          <mxGeometry relative="1" as="geometry" />
        </mxCell>
        <mxCell id="ffiExBi7iPwK-QHplg8S-26" value="" style="rounded=0;whiteSpace=wrap;html=1;fillColor=#ffe6cc;strokeColor=#d79b00;" vertex="1" parent="1">
          <mxGeometry x="1115" y="640" width="190" height="120" as="geometry" />
        </mxCell>
        <mxCell id="ffiExBi7iPwK-QHplg8S-27" value="replication controller" style="text;html=1;align=center;verticalAlign=middle;whiteSpace=wrap;rounded=0;" vertex="1" parent="1">
          <mxGeometry x="1145" y="770" width="120" height="30" as="geometry" />
        </mxCell>
        <mxCell id="ffiExBi7iPwK-QHplg8S-28" value="&lt;font&gt;&lt;span style=&quot;box-sizing: border-box; text-wrap-style: initial; word-break: break-word; font-family: Consolas, Monaco, &amp;quot;Andale Mono&amp;quot;, &amp;quot;Ubuntu Mono&amp;quot;, monospace; white-space-collapse: preserve;&quot;&gt;&lt;span style=&quot;box-sizing: border-box; text-wrap-style: initial; word-break: break-word; color: rgb(0, 119, 170);&quot; class=&quot;token key&quot;&gt;template&lt;/span&gt;&lt;span style=&quot;box-sizing: border-box; text-wrap-style: initial; word-break: break-word; color: rgb(153, 153, 153);&quot; class=&quot;token&quot;&gt;:&lt;/span&gt;&lt;span style=&quot;box-sizing: border-box; text-wrap-style: initial; word-break: break-word;&quot;&gt;                 &lt;/span&gt;&lt;span style=&quot;box-sizing: border-box; text-wrap-style: initial; word-break: break-word;&quot;&gt;&lt;br&gt;&lt;/span&gt;&lt;/span&gt;&lt;span style=&quot;box-sizing: border-box; text-wrap-style: initial; word-break: break-word; font-family: Consolas, Monaco, &amp;quot;Andale Mono&amp;quot;, &amp;quot;Ubuntu Mono&amp;quot;, monospace; white-space-collapse: preserve;&quot;&gt;&lt;span style=&quot;box-sizing: border-box; text-wrap-style: initial; word-break: break-word;&quot;&gt;    &lt;/span&gt;&lt;span style=&quot;box-sizing: border-box; text-wrap-style: initial; word-break: break-word; color: rgb(0, 119, 170);&quot; class=&quot;token key&quot;&gt;metadata&lt;/span&gt;&lt;span style=&quot;box-sizing: border-box; text-wrap-style: initial; word-break: break-word; color: rgb(153, 153, 153);&quot; class=&quot;token&quot;&gt;:&lt;/span&gt;&lt;span style=&quot;box-sizing: border-box; text-wrap-style: initial; word-break: break-word;&quot;&gt;&lt;br&gt;&lt;/span&gt;&lt;/span&gt;&lt;span style=&quot;box-sizing: border-box; text-wrap-style: initial; word-break: break-word; font-family: Consolas, Monaco, &amp;quot;Andale Mono&amp;quot;, &amp;quot;Ubuntu Mono&amp;quot;, monospace; white-space-collapse: preserve;&quot;&gt;&lt;span style=&quot;box-sizing: border-box; text-wrap-style: initial; word-break: break-word;&quot;&gt;      &lt;/span&gt;&lt;span style=&quot;box-sizing: border-box; text-wrap-style: initial; word-break: break-word; color: rgb(0, 119, 170);&quot; data-spm-anchor-id=&quot;60902afd.2ef5001f.0.i4.655a3d33Okxrpd&quot; class=&quot;token key&quot;&gt;labels&lt;/span&gt;&lt;span style=&quot;box-sizing: border-box; text-wrap-style: initial; word-break: break-word; color: rgb(153, 153, 153);&quot; class=&quot;token&quot;&gt;:&lt;/span&gt;&lt;span style=&quot;box-sizing: border-box; text-wrap-style: initial; word-break: break-word;&quot;&gt;&lt;br&gt;&lt;/span&gt;&lt;/span&gt;&lt;span style=&quot;box-sizing: border-box; text-wrap-style: initial; word-break: break-word; font-family: Consolas, Monaco, &amp;quot;Andale Mono&amp;quot;, &amp;quot;Ubuntu Mono&amp;quot;, monospace; white-space-collapse: preserve;&quot;&gt;&lt;span style=&quot;box-sizing: border-box; text-wrap-style: initial; word-break: break-word;&quot;&gt;        &lt;/span&gt;&lt;span style=&quot;box-sizing: border-box; text-wrap-style: initial; word-break: break-word; color: rgb(0, 119, 170);&quot; class=&quot;token key&quot;&gt;app&lt;/span&gt;&lt;span style=&quot;box-sizing: border-box; text-wrap-style: initial; word-break: break-word; color: rgb(153, 153, 153);&quot; class=&quot;token&quot;&gt;:&lt;/span&gt;&lt;span style=&quot;box-sizing: border-box; text-wrap-style: initial; word-break: break-word;&quot;&gt; webapp2&lt;/span&gt;&lt;/span&gt;&lt;/font&gt;&lt;div&gt;&lt;font&gt;&lt;span style=&quot;box-sizing: border-box; text-wrap-style: initial; word-break: break-word; font-family: Consolas, Monaco, &amp;quot;Andale Mono&amp;quot;, &amp;quot;Ubuntu Mono&amp;quot;, monospace; white-space-collapse: preserve;&quot;&gt;&lt;span style=&quot;box-sizing: border-box; text-wrap-style: initial; word-break: break-word;&quot;&gt;&lt;span style=&quot;white-space: pre;&quot;&gt;&#x9;&lt;/span&gt;deploy:v2       &lt;/span&gt;&lt;span style=&quot;box-sizing: border-box; text-wrap-style: initial; word-break: break-word;&quot;&gt;&lt;br&gt;&lt;/span&gt;&lt;/span&gt;&lt;span style=&quot;box-sizing: border-box; text-wrap-style: initial; word-break: break-word; font-family: Consolas, Monaco, &amp;quot;Andale Mono&amp;quot;, &amp;quot;Ubuntu Mono&amp;quot;, monospace; white-space-collapse: preserve;&quot;&gt;&lt;span style=&quot;box-sizing: border-box; text-wrap-style: initial; word-break: break-word;&quot;&gt;    &lt;/span&gt;&lt;span style=&quot;box-sizing: border-box; text-wrap-style: initial; word-break: break-word; color: rgb(0, 119, 170);&quot; class=&quot;token key&quot;&gt;spec&lt;/span&gt;&lt;span style=&quot;box-sizing: border-box; text-wrap-style: initial; word-break: break-word; color: rgb(153, 153, 153);&quot; class=&quot;token&quot;&gt;:&lt;/span&gt;&lt;span style=&quot;box-sizing: border-box; text-wrap-style: initial; word-break: break-word;&quot;&gt;&lt;br&gt;&lt;/span&gt;&lt;/span&gt;&lt;span style=&quot;box-sizing: border-box; text-wrap-style: initial; word-break: break-word; font-family: Consolas, Monaco, &amp;quot;Andale Mono&amp;quot;, &amp;quot;Ubuntu Mono&amp;quot;, monospace; white-space-collapse: preserve;&quot;&gt;&lt;span style=&quot;box-sizing: border-box; text-wrap-style: initial; word-break: break-word;&quot;&gt;      &lt;/span&gt;&lt;span style=&quot;box-sizing: border-box; text-wrap-style: initial; word-break: break-word; color: rgb(0, 119, 170);&quot; class=&quot;token key&quot;&gt;containers&lt;/span&gt;&lt;span style=&quot;box-sizing: border-box; text-wrap-style: initial; word-break: break-word; color: rgb(153, 153, 153);&quot; class=&quot;token&quot;&gt;:&lt;/span&gt;&lt;/span&gt;&lt;span style=&quot;box-sizing: border-box; text-wrap-style: initial; word-break: break-word; font-family: Consolas, Monaco, &amp;quot;Andale Mono&amp;quot;, &amp;quot;Ubuntu Mono&amp;quot;, monospace; white-space-collapse: preserve;&quot;&gt;&lt;span style=&quot;box-sizing: border-box; text-wrap-style: initial; word-break: break-word;&quot;&gt;&lt;br&gt;&lt;div style=&quot;&quot;&gt;&lt;span style=&quot;color: light-dark(rgb(0, 0, 0), rgb(255, 255, 255)); box-sizing: border-box; text-wrap-style: initial; word-break: break-word;&quot;&gt;          &lt;/span&gt;&lt;span style=&quot;box-sizing: border-box; text-wrap-style: initial; word-break: break-word; color: rgb(0, 119, 170);&quot; class=&quot;token key&quot;&gt;image&lt;/span&gt;&lt;span style=&quot;box-sizing: border-box; text-wrap-style: initial; word-break: break-word; color: rgb(153, 153, 153);&quot; class=&quot;token&quot;&gt;:&lt;/span&gt;&lt;span style=&quot;color: light-dark(rgb(0, 0, 0), rgb(255, 255, 255)); box-sizing: border-box; text-wrap-style: initial; word-break: break-word;&quot;&gt; nginx&lt;/span&gt;&lt;span style=&quot;box-sizing: border-box; text-wrap-style: initial; word-break: break-word; color: rgb(153, 153, 153);&quot; class=&quot;token&quot;&gt;:&lt;/span&gt;&lt;span style=&quot;color: light-dark(rgb(0, 0, 0), rgb(255, 255, 255)); box-sizing: border-box; text-wrap-style: initial; word-break: break-word;&quot;&gt;V2&lt;/span&gt;&lt;/div&gt;&lt;/span&gt;&lt;/span&gt;&lt;/font&gt;&lt;/div&gt;" style="text;html=1;align=left;verticalAlign=middle;whiteSpace=wrap;rounded=0;" vertex="1" parent="1">
          <mxGeometry x="1115" y="643" width="190" height="115" as="geometry" />
        </mxCell>
        <mxCell id="ffiExBi7iPwK-QHplg8S-29" value="Pod:nginx:V1" style="rounded=1;whiteSpace=wrap;html=1;fillColor=#dae8fc;strokeColor=#6c8ebf;" vertex="1" parent="1">
          <mxGeometry x="980" y="530" width="80" height="50" as="geometry" />
        </mxCell>
        <mxCell id="ffiExBi7iPwK-QHplg8S-30" value="Pod:nginx:V1" style="rounded=1;whiteSpace=wrap;html=1;fillColor=#dae8fc;strokeColor=#6c8ebf;" vertex="1" parent="1">
          <mxGeometry x="1075" y="530" width="80" height="50" as="geometry" />
        </mxCell>
        <mxCell id="ffiExBi7iPwK-QHplg8S-31" value="Pod:nginx:V2" style="rounded=1;whiteSpace=wrap;html=1;fillColor=#dae8fc;strokeColor=#6c8ebf;" vertex="1" parent="1">
          <mxGeometry x="1170" y="530" width="80" height="50" as="geometry" />
        </mxCell>
        <mxCell id="ffiExBi7iPwK-QHplg8S-32" style="edgeStyle=orthogonalEdgeStyle;rounded=0;orthogonalLoop=1;jettySize=auto;html=1;entryX=0.5;entryY=0;entryDx=0;entryDy=0;" edge="1" parent="1" source="ffiExBi7iPwK-QHplg8S-35" target="ffiExBi7iPwK-QHplg8S-29">
          <mxGeometry relative="1" as="geometry" />
        </mxCell>
        <mxCell id="ffiExBi7iPwK-QHplg8S-33" style="edgeStyle=orthogonalEdgeStyle;rounded=0;orthogonalLoop=1;jettySize=auto;html=1;entryX=0.5;entryY=0;entryDx=0;entryDy=0;" edge="1" parent="1" source="ffiExBi7iPwK-QHplg8S-35" target="ffiExBi7iPwK-QHplg8S-30">
          <mxGeometry relative="1" as="geometry" />
        </mxCell>
        <mxCell id="ffiExBi7iPwK-QHplg8S-34" style="edgeStyle=orthogonalEdgeStyle;rounded=0;orthogonalLoop=1;jettySize=auto;html=1;" edge="1" parent="1" source="ffiExBi7iPwK-QHplg8S-35" target="ffiExBi7iPwK-QHplg8S-31">
          <mxGeometry relative="1" as="geometry">
            <Array as="points">
              <mxPoint x="1115" y="490" />
              <mxPoint x="1220" y="490" />
            </Array>
          </mxGeometry>
        </mxCell>
        <mxCell id="ffiExBi7iPwK-QHplg8S-35" value="service&lt;div&gt;label:webapp&lt;/div&gt;" style="ellipse;shape=cloud;whiteSpace=wrap;html=1;fillColor=#d5e8d4;strokeColor=#82b366;" vertex="1" parent="1">
          <mxGeometry x="1055" y="370" width="120" height="80" as="geometry" />
        </mxCell>
        <mxCell id="ffiExBi7iPwK-QHplg8S-45" value="" style="html=1;shadow=0;dashed=0;align=center;verticalAlign=middle;shape=mxgraph.arrows2.uTurnArrow;dy=5.26;arrowHead=28;dx2=25;direction=south;" vertex="1" parent="1">
          <mxGeometry x="530" y="310" width="180" height="20" as="geometry" />
        </mxCell>
        <mxCell id="ffiExBi7iPwK-QHplg8S-46" value="1、rc增加标签，deploy" style="text;html=1;align=center;verticalAlign=middle;whiteSpace=wrap;rounded=0;" vertex="1" parent="1">
          <mxGeometry x="530" y="260" width="155" height="30" as="geometry" />
        </mxCell>
        <mxCell id="ffiExBi7iPwK-QHplg8S-47" value="" style="html=1;shadow=0;dashed=0;align=center;verticalAlign=middle;shape=mxgraph.arrows2.uTurnArrow;dy=5.26;arrowHead=28;dx2=25;direction=south;" vertex="1" parent="1">
          <mxGeometry x="860" y="310" width="180" height="20" as="geometry" />
        </mxCell>
        <mxCell id="ffiExBi7iPwK-QHplg8S-48" value="2、滚动优化，逐渐增加新版本减少老版本" style="text;html=1;align=center;verticalAlign=middle;whiteSpace=wrap;rounded=0;" vertex="1" parent="1">
          <mxGeometry x="860" y="260" width="155" height="30" as="geometry" />
        </mxCell>
        <mxCell id="ffiExBi7iPwK-QHplg8S-49" value="" style="html=1;shadow=0;dashed=0;align=center;verticalAlign=middle;shape=mxgraph.arrows2.uTurnArrow;dy=5.26;arrowHead=28;dx2=25;direction=south;" vertex="1" parent="1">
          <mxGeometry x="1185" y="310" width="180" height="20" as="geometry" />
        </mxCell>
        <mxCell id="ffiExBi7iPwK-QHplg8S-50" value="3、最终全部替换" style="text;html=1;align=center;verticalAlign=middle;whiteSpace=wrap;rounded=0;" vertex="1" parent="1">
          <mxGeometry x="1185" y="260" width="155" height="30" as="geometry" />
        </mxCell>
        <mxCell id="ffiExBi7iPwK-QHplg8S-52" style="edgeStyle=orthogonalEdgeStyle;rounded=0;orthogonalLoop=1;jettySize=auto;html=1;" edge="1" parent="1" source="ffiExBi7iPwK-QHplg8S-51" target="ffiExBi7iPwK-QHplg8S-21">
          <mxGeometry relative="1" as="geometry" />
        </mxCell>
        <mxCell id="ffiExBi7iPwK-QHplg8S-53" style="edgeStyle=orthogonalEdgeStyle;rounded=0;orthogonalLoop=1;jettySize=auto;html=1;" edge="1" parent="1" source="ffiExBi7iPwK-QHplg8S-51" target="ffiExBi7iPwK-QHplg8S-20">
          <mxGeometry relative="1" as="geometry" />
        </mxCell>
        <mxCell id="ffiExBi7iPwK-QHplg8S-54" style="edgeStyle=orthogonalEdgeStyle;rounded=0;orthogonalLoop=1;jettySize=auto;html=1;" edge="1" parent="1" source="ffiExBi7iPwK-QHplg8S-51" target="ffiExBi7iPwK-QHplg8S-22">
          <mxGeometry relative="1" as="geometry" />
        </mxCell>
        <mxCell id="ffiExBi7iPwK-QHplg8S-51" value="service：&lt;div&gt;label:webapp&lt;/div&gt;" style="ellipse;shape=cloud;whiteSpace=wrap;html=1;fillColor=#d5e8d4;strokeColor=#82b366;" vertex="1" parent="1">
          <mxGeometry x="715" y="370" width="120" height="80" as="geometry" />
        </mxCell>
        <mxCell id="ffiExBi7iPwK-QHplg8S-55" value="" style="rounded=0;whiteSpace=wrap;html=1;fillColor=#ffe6cc;strokeColor=#d79b00;" vertex="1" parent="1">
          <mxGeometry x="910" y="642" width="190" height="120" as="geometry" />
        </mxCell>
        <mxCell id="ffiExBi7iPwK-QHplg8S-56" value="replication controller" style="text;html=1;align=center;verticalAlign=middle;whiteSpace=wrap;rounded=0;" vertex="1" parent="1">
          <mxGeometry x="950" y="772" width="120" height="30" as="geometry" />
        </mxCell>
        <mxCell id="ffiExBi7iPwK-QHplg8S-58" style="edgeStyle=orthogonalEdgeStyle;rounded=0;orthogonalLoop=1;jettySize=auto;html=1;entryX=0.5;entryY=1;entryDx=0;entryDy=0;" edge="1" parent="1" source="ffiExBi7iPwK-QHplg8S-57" target="ffiExBi7iPwK-QHplg8S-29">
          <mxGeometry relative="1" as="geometry" />
        </mxCell>
        <mxCell id="ffiExBi7iPwK-QHplg8S-59" style="edgeStyle=orthogonalEdgeStyle;rounded=0;orthogonalLoop=1;jettySize=auto;html=1;entryX=0.5;entryY=1;entryDx=0;entryDy=0;" edge="1" parent="1" source="ffiExBi7iPwK-QHplg8S-57" target="ffiExBi7iPwK-QHplg8S-30">
          <mxGeometry relative="1" as="geometry" />
        </mxCell>
        <mxCell id="ffiExBi7iPwK-QHplg8S-57" value="&lt;font&gt;&lt;span style=&quot;box-sizing: border-box; text-wrap-style: initial; word-break: break-word; font-family: Consolas, Monaco, &amp;quot;Andale Mono&amp;quot;, &amp;quot;Ubuntu Mono&amp;quot;, monospace; white-space-collapse: preserve;&quot;&gt;&lt;span style=&quot;box-sizing: border-box; text-wrap-style: initial; word-break: break-word; color: rgb(0, 119, 170);&quot; class=&quot;token key&quot;&gt;template&lt;/span&gt;&lt;span style=&quot;box-sizing: border-box; text-wrap-style: initial; word-break: break-word; color: rgb(153, 153, 153);&quot; class=&quot;token&quot;&gt;:&lt;/span&gt;&lt;span style=&quot;box-sizing: border-box; text-wrap-style: initial; word-break: break-word;&quot;&gt;                 &lt;/span&gt;&lt;span style=&quot;box-sizing: border-box; text-wrap-style: initial; word-break: break-word;&quot;&gt;&lt;br&gt;&lt;/span&gt;&lt;/span&gt;&lt;span style=&quot;box-sizing: border-box; text-wrap-style: initial; word-break: break-word; font-family: Consolas, Monaco, &amp;quot;Andale Mono&amp;quot;, &amp;quot;Ubuntu Mono&amp;quot;, monospace; white-space-collapse: preserve;&quot;&gt;&lt;span style=&quot;box-sizing: border-box; text-wrap-style: initial; word-break: break-word;&quot;&gt;    &lt;/span&gt;&lt;span style=&quot;box-sizing: border-box; text-wrap-style: initial; word-break: break-word; color: rgb(0, 119, 170);&quot; class=&quot;token key&quot;&gt;metadata&lt;/span&gt;&lt;span style=&quot;box-sizing: border-box; text-wrap-style: initial; word-break: break-word; color: rgb(153, 153, 153);&quot; class=&quot;token&quot;&gt;:&lt;/span&gt;&lt;span style=&quot;box-sizing: border-box; text-wrap-style: initial; word-break: break-word;&quot;&gt;&lt;br&gt;&lt;/span&gt;&lt;/span&gt;&lt;span style=&quot;box-sizing: border-box; text-wrap-style: initial; word-break: break-word; font-family: Consolas, Monaco, &amp;quot;Andale Mono&amp;quot;, &amp;quot;Ubuntu Mono&amp;quot;, monospace; white-space-collapse: preserve;&quot;&gt;&lt;span style=&quot;box-sizing: border-box; text-wrap-style: initial; word-break: break-word;&quot;&gt;      &lt;/span&gt;&lt;span style=&quot;box-sizing: border-box; text-wrap-style: initial; word-break: break-word; color: rgb(0, 119, 170);&quot; data-spm-anchor-id=&quot;60902afd.2ef5001f.0.i4.655a3d33Okxrpd&quot; class=&quot;token key&quot;&gt;labels&lt;/span&gt;&lt;span style=&quot;box-sizing: border-box; text-wrap-style: initial; word-break: break-word; color: rgb(153, 153, 153);&quot; class=&quot;token&quot;&gt;:&lt;/span&gt;&lt;span style=&quot;box-sizing: border-box; text-wrap-style: initial; word-break: break-word;&quot;&gt;&lt;br&gt;&lt;/span&gt;&lt;/span&gt;&lt;span style=&quot;box-sizing: border-box; text-wrap-style: initial; word-break: break-word; font-family: Consolas, Monaco, &amp;quot;Andale Mono&amp;quot;, &amp;quot;Ubuntu Mono&amp;quot;, monospace; white-space-collapse: preserve;&quot;&gt;&lt;span style=&quot;box-sizing: border-box; text-wrap-style: initial; word-break: break-word;&quot;&gt;        &lt;/span&gt;&lt;span style=&quot;box-sizing: border-box; text-wrap-style: initial; word-break: break-word; color: rgb(0, 119, 170);&quot; class=&quot;token key&quot;&gt;app&lt;/span&gt;&lt;span style=&quot;box-sizing: border-box; text-wrap-style: initial; word-break: break-word; color: rgb(153, 153, 153);&quot; class=&quot;token&quot;&gt;:&lt;/span&gt;&lt;span style=&quot;box-sizing: border-box; text-wrap-style: initial; word-break: break-word;&quot;&gt; webapp&lt;/span&gt;&lt;/span&gt;&lt;/font&gt;&lt;div&gt;&lt;font&gt;&lt;span style=&quot;box-sizing: border-box; text-wrap-style: initial; word-break: break-word; font-family: Consolas, Monaco, &amp;quot;Andale Mono&amp;quot;, &amp;quot;Ubuntu Mono&amp;quot;, monospace; white-space-collapse: preserve;&quot;&gt;&lt;span style=&quot;box-sizing: border-box; text-wrap-style: initial; word-break: break-word;&quot;&gt;&lt;span style=&quot;white-space: pre;&quot;&gt;&#x9;&lt;/span&gt;deploy:v1       &lt;/span&gt;&lt;span style=&quot;box-sizing: border-box; text-wrap-style: initial; word-break: break-word;&quot;&gt;&lt;br&gt;&lt;/span&gt;&lt;/span&gt;&lt;span style=&quot;box-sizing: border-box; text-wrap-style: initial; word-break: break-word; font-family: Consolas, Monaco, &amp;quot;Andale Mono&amp;quot;, &amp;quot;Ubuntu Mono&amp;quot;, monospace; white-space-collapse: preserve;&quot;&gt;&lt;span style=&quot;box-sizing: border-box; text-wrap-style: initial; word-break: break-word;&quot;&gt;    &lt;/span&gt;&lt;span style=&quot;box-sizing: border-box; text-wrap-style: initial; word-break: break-word; color: rgb(0, 119, 170);&quot; class=&quot;token key&quot;&gt;spec&lt;/span&gt;&lt;span style=&quot;box-sizing: border-box; text-wrap-style: initial; word-break: break-word; color: rgb(153, 153, 153);&quot; class=&quot;token&quot;&gt;:&lt;/span&gt;&lt;span style=&quot;box-sizing: border-box; text-wrap-style: initial; word-break: break-word;&quot;&gt;&lt;br&gt;&lt;/span&gt;&lt;/span&gt;&lt;span style=&quot;box-sizing: border-box; text-wrap-style: initial; word-break: break-word; font-family: Consolas, Monaco, &amp;quot;Andale Mono&amp;quot;, &amp;quot;Ubuntu Mono&amp;quot;, monospace; white-space-collapse: preserve;&quot;&gt;&lt;span style=&quot;box-sizing: border-box; text-wrap-style: initial; word-break: break-word;&quot;&gt;      &lt;/span&gt;&lt;span style=&quot;box-sizing: border-box; text-wrap-style: initial; word-break: break-word; color: rgb(0, 119, 170);&quot; class=&quot;token key&quot;&gt;containers&lt;/span&gt;&lt;span style=&quot;box-sizing: border-box; text-wrap-style: initial; word-break: break-word; color: rgb(153, 153, 153);&quot; class=&quot;token&quot;&gt;:&lt;/span&gt;&lt;/span&gt;&lt;span style=&quot;box-sizing: border-box; text-wrap-style: initial; word-break: break-word; font-family: Consolas, Monaco, &amp;quot;Andale Mono&amp;quot;, &amp;quot;Ubuntu Mono&amp;quot;, monospace; white-space-collapse: preserve;&quot;&gt;&lt;span style=&quot;box-sizing: border-box; text-wrap-style: initial; word-break: break-word;&quot;&gt;&lt;br&gt;&lt;div style=&quot;&quot;&gt;&lt;span style=&quot;color: light-dark(rgb(0, 0, 0), rgb(255, 255, 255)); box-sizing: border-box; text-wrap-style: initial; word-break: break-word;&quot;&gt;          &lt;/span&gt;&lt;span style=&quot;box-sizing: border-box; text-wrap-style: initial; word-break: break-word; color: rgb(0, 119, 170);&quot; class=&quot;token key&quot;&gt;image&lt;/span&gt;&lt;span style=&quot;box-sizing: border-box; text-wrap-style: initial; word-break: break-word; color: rgb(153, 153, 153);&quot; class=&quot;token&quot;&gt;:&lt;/span&gt;&lt;span style=&quot;color: light-dark(rgb(0, 0, 0), rgb(255, 255, 255)); box-sizing: border-box; text-wrap-style: initial; word-break: break-word;&quot;&gt; nginx&lt;/span&gt;&lt;span style=&quot;box-sizing: border-box; text-wrap-style: initial; word-break: break-word; color: rgb(153, 153, 153);&quot; class=&quot;token&quot;&gt;:&lt;/span&gt;&lt;span style=&quot;color: light-dark(rgb(0, 0, 0), rgb(255, 255, 255)); box-sizing: border-box; text-wrap-style: initial; word-break: break-word;&quot;&gt;V1&lt;/span&gt;&lt;/div&gt;&lt;/span&gt;&lt;/span&gt;&lt;/font&gt;&lt;/div&gt;" style="text;html=1;align=left;verticalAlign=middle;whiteSpace=wrap;rounded=0;" vertex="1" parent="1">
          <mxGeometry x="910" y="644" width="190" height="115" as="geometry" />
        </mxCell>
        <mxCell id="ffiExBi7iPwK-QHplg8S-60" style="edgeStyle=orthogonalEdgeStyle;rounded=0;orthogonalLoop=1;jettySize=auto;html=1;entryX=0.5;entryY=1;entryDx=0;entryDy=0;" edge="1" parent="1" source="ffiExBi7iPwK-QHplg8S-63" target="ffiExBi7iPwK-QHplg8S-66">
          <mxGeometry relative="1" as="geometry" />
        </mxCell>
        <mxCell id="ffiExBi7iPwK-QHplg8S-61" style="edgeStyle=orthogonalEdgeStyle;rounded=0;orthogonalLoop=1;jettySize=auto;html=1;entryX=0.5;entryY=1;entryDx=0;entryDy=0;" edge="1" parent="1" source="ffiExBi7iPwK-QHplg8S-63" target="ffiExBi7iPwK-QHplg8S-67">
          <mxGeometry relative="1" as="geometry" />
        </mxCell>
        <mxCell id="ffiExBi7iPwK-QHplg8S-62" style="edgeStyle=orthogonalEdgeStyle;rounded=0;orthogonalLoop=1;jettySize=auto;html=1;entryX=0.5;entryY=1;entryDx=0;entryDy=0;" edge="1" parent="1" source="ffiExBi7iPwK-QHplg8S-63">
          <mxGeometry relative="1" as="geometry">
            <mxPoint x="1570" y="582" as="targetPoint" />
          </mxGeometry>
        </mxCell>
        <mxCell id="ffiExBi7iPwK-QHplg8S-63" value="" style="rounded=0;whiteSpace=wrap;html=1;fillColor=#ffe6cc;strokeColor=#d79b00;" vertex="1" parent="1">
          <mxGeometry x="1380" y="642" width="190" height="120" as="geometry" />
        </mxCell>
        <mxCell id="ffiExBi7iPwK-QHplg8S-64" value="replication controller" style="text;html=1;align=center;verticalAlign=middle;whiteSpace=wrap;rounded=0;" vertex="1" parent="1">
          <mxGeometry x="1420" y="772" width="120" height="30" as="geometry" />
        </mxCell>
        <mxCell id="ffiExBi7iPwK-QHplg8S-65" value="&lt;font&gt;&lt;span style=&quot;box-sizing: border-box; text-wrap-style: initial; word-break: break-word; font-family: Consolas, Monaco, &amp;quot;Andale Mono&amp;quot;, &amp;quot;Ubuntu Mono&amp;quot;, monospace; white-space-collapse: preserve;&quot;&gt;&lt;span style=&quot;box-sizing: border-box; text-wrap-style: initial; word-break: break-word; color: rgb(0, 119, 170);&quot; class=&quot;token key&quot;&gt;template&lt;/span&gt;&lt;span style=&quot;box-sizing: border-box; text-wrap-style: initial; word-break: break-word; color: rgb(153, 153, 153);&quot; class=&quot;token&quot;&gt;:&lt;/span&gt;&lt;span style=&quot;box-sizing: border-box; text-wrap-style: initial; word-break: break-word;&quot;&gt;                 &lt;/span&gt;&lt;span style=&quot;box-sizing: border-box; text-wrap-style: initial; word-break: break-word;&quot;&gt;&lt;br&gt;&lt;/span&gt;&lt;/span&gt;&lt;span style=&quot;box-sizing: border-box; text-wrap-style: initial; word-break: break-word; font-family: Consolas, Monaco, &amp;quot;Andale Mono&amp;quot;, &amp;quot;Ubuntu Mono&amp;quot;, monospace; white-space-collapse: preserve;&quot;&gt;&lt;span style=&quot;box-sizing: border-box; text-wrap-style: initial; word-break: break-word;&quot;&gt;    &lt;/span&gt;&lt;span style=&quot;box-sizing: border-box; text-wrap-style: initial; word-break: break-word; color: rgb(0, 119, 170);&quot; class=&quot;token key&quot;&gt;metadata&lt;/span&gt;&lt;span style=&quot;box-sizing: border-box; text-wrap-style: initial; word-break: break-word; color: rgb(153, 153, 153);&quot; class=&quot;token&quot;&gt;:&lt;/span&gt;&lt;span style=&quot;box-sizing: border-box; text-wrap-style: initial; word-break: break-word;&quot;&gt;&lt;br&gt;&lt;/span&gt;&lt;/span&gt;&lt;span style=&quot;box-sizing: border-box; text-wrap-style: initial; word-break: break-word; font-family: Consolas, Monaco, &amp;quot;Andale Mono&amp;quot;, &amp;quot;Ubuntu Mono&amp;quot;, monospace; white-space-collapse: preserve;&quot;&gt;&lt;span style=&quot;box-sizing: border-box; text-wrap-style: initial; word-break: break-word;&quot;&gt;      &lt;/span&gt;&lt;span style=&quot;box-sizing: border-box; text-wrap-style: initial; word-break: break-word; color: rgb(0, 119, 170);&quot; data-spm-anchor-id=&quot;60902afd.2ef5001f.0.i4.655a3d33Okxrpd&quot; class=&quot;token key&quot;&gt;labels&lt;/span&gt;&lt;span style=&quot;box-sizing: border-box; text-wrap-style: initial; word-break: break-word; color: rgb(153, 153, 153);&quot; class=&quot;token&quot;&gt;:&lt;/span&gt;&lt;span style=&quot;box-sizing: border-box; text-wrap-style: initial; word-break: break-word;&quot;&gt;&lt;br&gt;&lt;/span&gt;&lt;/span&gt;&lt;span style=&quot;box-sizing: border-box; text-wrap-style: initial; word-break: break-word; font-family: Consolas, Monaco, &amp;quot;Andale Mono&amp;quot;, &amp;quot;Ubuntu Mono&amp;quot;, monospace; white-space-collapse: preserve;&quot;&gt;&lt;span style=&quot;box-sizing: border-box; text-wrap-style: initial; word-break: break-word;&quot;&gt;        &lt;/span&gt;&lt;span style=&quot;box-sizing: border-box; text-wrap-style: initial; word-break: break-word; color: rgb(0, 119, 170);&quot; class=&quot;token key&quot;&gt;app&lt;/span&gt;&lt;span style=&quot;box-sizing: border-box; text-wrap-style: initial; word-break: break-word; color: rgb(153, 153, 153);&quot; class=&quot;token&quot;&gt;:&lt;/span&gt;&lt;span style=&quot;box-sizing: border-box; text-wrap-style: initial; word-break: break-word;&quot;&gt; webapp&lt;/span&gt;&lt;/span&gt;&lt;/font&gt;&lt;div&gt;&lt;font&gt;&lt;span style=&quot;box-sizing: border-box; text-wrap-style: initial; word-break: break-word; font-family: Consolas, Monaco, &amp;quot;Andale Mono&amp;quot;, &amp;quot;Ubuntu Mono&amp;quot;, monospace; white-space-collapse: preserve;&quot;&gt;&lt;span style=&quot;box-sizing: border-box; text-wrap-style: initial; word-break: break-word;&quot;&gt;&lt;span style=&quot;white-space: pre;&quot;&gt;&#x9;&lt;/span&gt;deploy:v2       &lt;/span&gt;&lt;span style=&quot;box-sizing: border-box; text-wrap-style: initial; word-break: break-word;&quot;&gt;&lt;br&gt;&lt;/span&gt;&lt;/span&gt;&lt;span style=&quot;box-sizing: border-box; text-wrap-style: initial; word-break: break-word; font-family: Consolas, Monaco, &amp;quot;Andale Mono&amp;quot;, &amp;quot;Ubuntu Mono&amp;quot;, monospace; white-space-collapse: preserve;&quot;&gt;&lt;span style=&quot;box-sizing: border-box; text-wrap-style: initial; word-break: break-word;&quot;&gt;    &lt;/span&gt;&lt;span style=&quot;box-sizing: border-box; text-wrap-style: initial; word-break: break-word; color: rgb(0, 119, 170);&quot; class=&quot;token key&quot;&gt;spec&lt;/span&gt;&lt;span style=&quot;box-sizing: border-box; text-wrap-style: initial; word-break: break-word; color: rgb(153, 153, 153);&quot; class=&quot;token&quot;&gt;:&lt;/span&gt;&lt;span style=&quot;box-sizing: border-box; text-wrap-style: initial; word-break: break-word;&quot;&gt;&lt;br&gt;&lt;/span&gt;&lt;/span&gt;&lt;span style=&quot;box-sizing: border-box; text-wrap-style: initial; word-break: break-word; font-family: Consolas, Monaco, &amp;quot;Andale Mono&amp;quot;, &amp;quot;Ubuntu Mono&amp;quot;, monospace; white-space-collapse: preserve;&quot;&gt;&lt;span style=&quot;box-sizing: border-box; text-wrap-style: initial; word-break: break-word;&quot;&gt;      &lt;/span&gt;&lt;span style=&quot;box-sizing: border-box; text-wrap-style: initial; word-break: break-word; color: rgb(0, 119, 170);&quot; class=&quot;token key&quot;&gt;containers&lt;/span&gt;&lt;span style=&quot;box-sizing: border-box; text-wrap-style: initial; word-break: break-word; color: rgb(153, 153, 153);&quot; class=&quot;token&quot;&gt;:&lt;/span&gt;&lt;/span&gt;&lt;span style=&quot;box-sizing: border-box; text-wrap-style: initial; word-break: break-word; font-family: Consolas, Monaco, &amp;quot;Andale Mono&amp;quot;, &amp;quot;Ubuntu Mono&amp;quot;, monospace; white-space-collapse: preserve;&quot;&gt;&lt;span style=&quot;box-sizing: border-box; text-wrap-style: initial; word-break: break-word;&quot;&gt;&lt;br&gt;&lt;div style=&quot;&quot;&gt;&lt;span style=&quot;color: light-dark(rgb(0, 0, 0), rgb(255, 255, 255)); box-sizing: border-box; text-wrap-style: initial; word-break: break-word;&quot;&gt;          &lt;/span&gt;&lt;span style=&quot;box-sizing: border-box; text-wrap-style: initial; word-break: break-word; color: rgb(0, 119, 170);&quot; class=&quot;token key&quot;&gt;image&lt;/span&gt;&lt;span style=&quot;box-sizing: border-box; text-wrap-style: initial; word-break: break-word; color: rgb(153, 153, 153);&quot; class=&quot;token&quot;&gt;:&lt;/span&gt;&lt;span style=&quot;color: light-dark(rgb(0, 0, 0), rgb(255, 255, 255)); box-sizing: border-box; text-wrap-style: initial; word-break: break-word;&quot;&gt; nginx&lt;/span&gt;&lt;span style=&quot;box-sizing: border-box; text-wrap-style: initial; word-break: break-word; color: rgb(153, 153, 153);&quot; class=&quot;token&quot;&gt;:&lt;/span&gt;&lt;span style=&quot;color: light-dark(rgb(0, 0, 0), rgb(255, 255, 255)); box-sizing: border-box; text-wrap-style: initial; word-break: break-word;&quot;&gt;V2&lt;/span&gt;&lt;/div&gt;&lt;/span&gt;&lt;/span&gt;&lt;/font&gt;&lt;/div&gt;" style="text;html=1;align=left;verticalAlign=middle;whiteSpace=wrap;rounded=0;" vertex="1" parent="1">
          <mxGeometry x="1380" y="644" width="190" height="115" as="geometry" />
        </mxCell>
        <mxCell id="ffiExBi7iPwK-QHplg8S-66" value="Pod:nginx:V2" style="rounded=1;whiteSpace=wrap;html=1;fillColor=#dae8fc;strokeColor=#6c8ebf;" vertex="1" parent="1">
          <mxGeometry x="1340" y="532" width="80" height="50" as="geometry" />
        </mxCell>
        <mxCell id="ffiExBi7iPwK-QHplg8S-67" value="Pod:nginx:V2" style="rounded=1;whiteSpace=wrap;html=1;fillColor=#dae8fc;strokeColor=#6c8ebf;" vertex="1" parent="1">
          <mxGeometry x="1435" y="532" width="80" height="50" as="geometry" />
        </mxCell>
        <mxCell id="ffiExBi7iPwK-QHplg8S-68" style="edgeStyle=orthogonalEdgeStyle;rounded=0;orthogonalLoop=1;jettySize=auto;html=1;" edge="1" parent="1" source="ffiExBi7iPwK-QHplg8S-71" target="ffiExBi7iPwK-QHplg8S-67">
          <mxGeometry relative="1" as="geometry" />
        </mxCell>
        <mxCell id="ffiExBi7iPwK-QHplg8S-69" style="edgeStyle=orthogonalEdgeStyle;rounded=0;orthogonalLoop=1;jettySize=auto;html=1;" edge="1" parent="1" source="ffiExBi7iPwK-QHplg8S-71" target="ffiExBi7iPwK-QHplg8S-66">
          <mxGeometry relative="1" as="geometry" />
        </mxCell>
        <mxCell id="ffiExBi7iPwK-QHplg8S-70" style="edgeStyle=orthogonalEdgeStyle;rounded=0;orthogonalLoop=1;jettySize=auto;html=1;" edge="1" parent="1">
          <mxGeometry relative="1" as="geometry">
            <mxPoint x="1570" y="534" as="targetPoint" />
            <mxPoint x="1475" y="454" as="sourcePoint" />
            <Array as="points">
              <mxPoint x="1475" y="492" />
              <mxPoint x="1571" y="492" />
            </Array>
          </mxGeometry>
        </mxCell>
        <mxCell id="ffiExBi7iPwK-QHplg8S-71" value="service：&lt;div&gt;label:webapp&lt;/div&gt;" style="ellipse;shape=cloud;whiteSpace=wrap;html=1;fillColor=#d5e8d4;strokeColor=#82b366;" vertex="1" parent="1">
          <mxGeometry x="1415" y="372" width="120" height="80" as="geometry" />
        </mxCell>
        <mxCell id="ffiExBi7iPwK-QHplg8S-72" value="Pod:nginx:V2" style="rounded=1;whiteSpace=wrap;html=1;fillColor=#dae8fc;strokeColor=#6c8ebf;" vertex="1" parent="1">
          <mxGeometry x="1530" y="535" width="80" height="50" as="geometry" />
        </mxCell>
      </root>
    </mxGraphModel>
  </diagram>
</mxfile>
